<?xml version="1.0" ?><svg viewBox="0 0 64 64" xmlns="http://www.w3.org/2000/svg"><defs><style>.cls-1{fill:#d2ddff;}.cls-2{fill:none;}.cls-2,.cls-4,.cls-5,.cls-6,.cls-7,.cls-8{stroke:#4c241d;stroke-linecap:round;stroke-linejoin:round;stroke-width:2px;}.cls-3{fill:#4c241d;}.cls-4{fill:#e2e2e2;}.cls-5{fill:#9dc1e4;}.cls-6{fill:#ccc;}.cls-7{fill:#6b4f5b;}.cls-8{fill:#ffce56;}</style></defs><g id="atm"><circle class="cls-1" cx="39.011" cy="22.6083" r="21"/><line class="cls-2" x1="54.5967" x2="57.4252" y1="12.1941" y2="15.0225"/><line class="cls-2" x1="57.4252" x2="54.5967" y1="12.1941" y2="15.0225"/><circle class="cls-3" cx="45.511" cy="7.1083" r="1.1324"/><circle class="cls-2" cx="57.1577" cy="26.1944" r="2.0846"/><path class="cls-4" d="M49,38V15.3077A2.3077,2.3077,0,0,0,46.6923,13H9.3077A2.3077,2.3077,0,0,0,7,15.3077V38L4,47H52Z"/><rect class="cls-5" height="22" width="34.011" x="11" y="17"/><rect class="cls-6" height="4" width="48" x="4" y="47"/><polyline class="cls-4" points="7 60 7 51 49 51 49 60"/><line class="cls-2" x1="35" x2="45" y1="43" y2="43"/><rect class="cls-7" height="4" width="11" x="11" y="54"/><line class="cls-2" x1="40" x2="40" y1="55" y2="56"/><line class="cls-2" x1="43" x2="43" y1="55" y2="56"/><path class="cls-3" d="M14.6433,43.1083c0,.6254-1.507,1.1323-2.1323,1.1323a1.1324,1.1324,0,1,1,0-2.2647C13.1363,41.9759,14.6433,42.4829,14.6433,43.1083Z"/><circle class="cls-3" cx="16.511" cy="43.1083" r="1.1324"/><circle class="cls-8" cx="28" cy="28" r="8"/><polyline class="cls-2" points="31 25 25 25 25 28 31 28 31 31 25 31"/><line class="cls-2" x1="28" x2="28" y1="23" y2="33"/></g></svg>